<svg width="60" height="60" viewBox="0 0 60 60" fill="none" xmlns="http://www.w3.org/2000/svg">
<circle opacity="0.2" cx="30" cy="30" r="30" fill="#E60EF2"/>
<path d="M30 30C34.1421 30 37.5 26.6421 37.5 22.5C37.5 18.3579 34.1421 15 30 15C25.8579 15 22.5 18.3579 22.5 22.5C22.5 26.6421 25.8579 30 30 30Z" stroke="#E60EF2" stroke-width="1.5" stroke-linecap="round" stroke-linejoin="round"/>
<path d="M40.8151 35.61L35.505 40.9201C35.295 41.1301 35.1 41.52 35.055 41.805L34.77 43.83C34.665 44.565 35.1751 45.075 35.9101 44.97L37.935 44.685C38.22 44.64 38.6251 44.445 38.8201 44.235L44.13 38.9251C45.045 38.0101 45.48 36.945 44.13 35.595C42.795 34.26 41.7301 34.695 40.8151 35.61Z" stroke="#E60EF2" stroke-width="1.5" stroke-miterlimit="10" stroke-linecap="round" stroke-linejoin="round"/>
<path d="M40.0503 36.375C40.5003 37.995 41.7602 39.255 43.3802 39.705" stroke="#E60EF2" stroke-width="1.5" stroke-miterlimit="10" stroke-linecap="round" stroke-linejoin="round"/>
<path d="M17.1147 45C17.1147 39.195 22.8898 34.5 29.9998 34.5C31.5598 34.5 33.0597 34.725 34.4547 35.145" stroke="#E60EF2" stroke-width="1.5" stroke-linecap="round" stroke-linejoin="round"/>
</svg>
