<svg width="60" height="60" viewBox="0 0 60 60" fill="none" xmlns="http://www.w3.org/2000/svg">
<circle opacity="0.1" cx="30" cy="30" r="30" fill="#0000FF"/>
<path d="M25.5 27C27.1569 27 28.5 25.6569 28.5 24C28.5 22.3431 27.1569 21 25.5 21C23.8431 21 22.5 22.3431 22.5 24C22.5 25.6569 23.8431 27 25.5 27Z" stroke="#0000FF" stroke-width="1.5" stroke-linecap="round" stroke-linejoin="round"/>
<path d="M31.5 15H25.5C18 15 15 18 15 25.5V34.5C15 42 18 45 25.5 45H34.5C42 45 45 42 45 34.5V27" stroke="#0000FF" stroke-width="1.5" stroke-linecap="round" stroke-linejoin="round"/>
<path d="M40.7098 15.885L35.2648 21.33C35.0548 21.54 34.8448 21.945 34.8148 22.245L34.5148 24.33C34.4098 25.08 34.9348 25.605 35.6848 25.5L37.7698 25.2C38.0548 25.155 38.4748 24.96 38.6848 24.75L44.1298 19.305C45.0748 18.36 45.5098 17.28 44.1298 15.9C42.7348 14.49 41.6548 14.94 40.7098 15.885Z" stroke="#0000FF" stroke-width="1.5" stroke-miterlimit="10" stroke-linecap="round" stroke-linejoin="round"/>
<path d="M39.9302 16.665C40.3952 18.315 41.6852 19.605 43.3352 20.07" stroke="#0000FF" stroke-width="1.5" stroke-miterlimit="10" stroke-linecap="round" stroke-linejoin="round"/>
<path d="M16.0049 40.4251L23.3999 35.4601C24.5849 34.6651 26.2949 34.7551 27.3599 35.6701L27.8549 36.1051C29.0249 37.1101 30.9149 37.1101 32.0849 36.1051L38.3249 30.7501C39.4949 29.7451 41.3849 29.7451 42.5549 30.7501L44.9999 32.8501" stroke="#292D32" stroke-width="1.5" stroke-linecap="round" stroke-linejoin="round"/>
</svg>
