<svg width="60" height="60" viewBox="0 0 60 60" fill="none" xmlns="http://www.w3.org/2000/svg">
<circle opacity="0.2" cx="30" cy="30" r="30" fill="#72DB75"/>
<path d="M39.0001 22.74C38.9101 22.725 38.8051 22.725 38.7151 22.74C36.6451 22.665 34.9951 20.97 34.9951 18.87C34.9951 16.725 36.7201 15 38.8651 15C41.0101 15 42.7351 16.74 42.7351 18.87C42.7201 20.97 41.0701 22.665 39.0001 22.74Z" stroke="#72DB75" stroke-width="1.5" stroke-linecap="round" stroke-linejoin="round"/>
<path d="M37.4552 33.66C39.5102 34.005 41.7752 33.645 43.3652 32.58C45.4802 31.17 45.4802 28.86 43.3652 27.45C41.7602 26.385 39.4652 26.025 37.4102 26.385" stroke="#72DB75" stroke-width="1.5" stroke-linecap="round" stroke-linejoin="round"/>
<path d="M20.9552 22.74C21.0452 22.725 21.1502 22.725 21.2402 22.74C23.3102 22.665 24.9602 20.97 24.9602 18.87C24.9602 16.725 23.2352 15 21.0902 15C18.9452 15 17.2202 16.74 17.2202 18.87C17.2352 20.97 18.8852 22.665 20.9552 22.74Z" stroke="#72DB75" stroke-width="1.5" stroke-linecap="round" stroke-linejoin="round"/>
<path d="M22.5002 33.66C20.4452 34.005 18.1802 33.645 16.5902 32.58C14.4752 31.17 14.4752 28.86 16.5902 27.45C18.1952 26.385 20.4902 26.025 22.5452 26.385" stroke="#72DB75" stroke-width="1.5" stroke-linecap="round" stroke-linejoin="round"/>
<path d="M30.0001 33.9451C29.9101 33.9301 29.8051 33.9301 29.7151 33.9451C27.6451 33.8701 25.9951 32.1751 25.9951 30.0751C25.9951 27.9301 27.7201 26.2051 29.8651 26.2051C32.0101 26.2051 33.7351 27.9451 33.7351 30.0751C33.7201 32.1751 32.0701 33.8851 30.0001 33.9451Z" stroke="#72DB75" stroke-width="1.5" stroke-linecap="round" stroke-linejoin="round"/>
<path d="M25.6351 38.67C23.5201 40.08 23.5201 42.39 25.6351 43.8C28.0351 45.405 31.9651 45.405 34.3651 43.8C36.4801 42.39 36.4801 40.08 34.3651 38.67C31.9801 37.08 28.0351 37.08 25.6351 38.67Z" stroke="#72DB75" stroke-width="1.5" stroke-linecap="round" stroke-linejoin="round"/>
</svg>
