<svg width="147" height="36" viewBox="0 0 147 36" fill="none" xmlns="http://www.w3.org/2000/svg">
<g opacity="0.87">
<path d="M6.68 34V12.928H0.92V34H6.68ZM6.68 6.688V0.543999H0.92V6.688H6.68Z" fill="#EF4A31"/>
<path d="M35.4935 28.144C32.5175 28.144 30.1655 25.744 30.1175 22.768V11.536C30.1175 8.56 32.5175 6.16 35.4935 6.16C38.4695 6.16 40.8695 8.56 40.8695 11.536H46.6775C46.6775 5.392 41.6855 0.399998 35.4935 0.399998C29.3495 0.399998 24.3575 5.392 24.3575 11.536V22.768C24.3575 28.96 29.3495 33.952 35.4935 33.952C41.6855 33.952 46.6775 28.96 46.6775 22.768H40.8695C40.8695 25.744 38.4695 28.144 35.4935 28.144ZM58.3378 12.88C57.6658 12.88 56.9458 12.976 56.2738 13.168V12.88H50.5138V34.048H56.2738V20.752C56.2738 19.936 56.8018 19.168 57.5698 18.832C58.3378 18.544 59.2018 18.688 59.8258 19.312L63.9058 15.184C62.4178 13.696 60.4498 12.88 58.3378 12.88ZM74.7076 28.096C73.8436 28.144 72.9796 27.904 72.2596 27.472L78.6916 24.784L79.5076 24.448L85.3636 22.048L84.2116 19.36V19.312V19.264H84.1636V19.216V19.168L84.1156 19.12C84.0196 18.928 83.9236 18.736 83.8276 18.544C83.8276 18.496 83.7796 18.4 83.7316 18.352C83.6356 18.208 83.5396 18.064 83.4916 17.872C83.4436 17.824 83.3956 17.728 83.3476 17.68C83.2516 17.584 83.2036 17.44 83.1076 17.344C80.1796 13.216 74.7556 11.776 70.1476 13.84C65.5876 15.904 63.0916 20.944 64.1956 25.84V25.888C64.4356 26.752 64.7236 27.568 65.1076 28.336C65.4436 28.912 65.7796 29.44 66.1636 29.968C68.2756 32.56 71.4916 34.048 74.8036 34C77.9716 34 80.5156 33.04 83.2516 30.64L79.5076 26.224C77.7796 27.712 76.4356 28.096 74.7076 28.096ZM70.0516 22.72C70.1956 21.136 71.2516 19.696 72.7396 19.072C73.2196 18.832 73.7956 18.688 74.3716 18.736C75.3796 18.736 76.3876 19.072 77.2036 19.696L77.2516 19.744L73.6996 21.232L70.2436 22.672L70.0516 22.768V22.72ZM103.127 12.88V14.032C98.663 11.776 93.287 12.976 90.119 16.816C86.999 20.704 86.999 26.224 90.119 30.112C93.287 33.952 98.663 35.152 103.127 32.896V34H108.935V12.88H103.127ZM98.375 28.24C95.735 28.24 93.623 26.08 93.623 23.44C93.623 20.848 95.735 18.688 98.375 18.688C100.967 18.688 103.127 20.848 103.127 23.44C103.127 26.08 100.967 28.192 98.375 28.24ZM122.028 18.688V12.88H119.292V0.447997H113.484V12.88H111.804V18.688H113.484V28.336C113.484 31.456 116.028 34 119.148 34H122.028V28.192H119.292V18.688H122.028ZM135.692 28.096C134.828 28.144 133.964 27.904 133.244 27.472L139.676 24.784L140.492 24.448L146.348 22.048L145.196 19.36V19.312V19.264H145.148V19.216V19.168L145.1 19.12C145.004 18.928 144.908 18.736 144.812 18.544C144.812 18.496 144.764 18.4 144.716 18.352C144.62 18.208 144.524 18.064 144.476 17.872C144.428 17.824 144.38 17.728 144.332 17.68C144.236 17.584 144.188 17.44 144.092 17.344C141.164 13.216 135.74 11.776 131.132 13.84C126.572 15.904 124.076 20.944 125.18 25.84V25.888C125.42 26.752 125.708 27.568 126.092 28.336C126.428 28.912 126.764 29.44 127.148 29.968C129.26 32.56 132.476 34.048 135.788 34C138.956 34 141.5 33.04 144.236 30.64L140.492 26.224C138.764 27.712 137.42 28.096 135.692 28.096ZM131.036 22.72C131.18 21.136 132.236 19.696 133.724 19.072C134.204 18.832 134.78 18.688 135.356 18.736C136.364 18.736 137.372 19.072 138.188 19.696L138.236 19.744L134.684 21.232L131.228 22.672L131.036 22.768V22.72Z" fill="#0000FF"/>
</g>
</svg>
