<svg width="264" height="257" viewBox="0 0 264 257" fill="none" xmlns="http://www.w3.org/2000/svg">
<rect opacity="0.5" x="0.5" y="0.5" width="263" height="256" rx="9.5" fill="#72DB75" stroke="#72DB75"/>
<mask id="mask0_53_275" style="mask-type:alpha" maskUnits="userSpaceOnUse" x="21" y="13" width="243" height="243">
<rect x="21" y="13" width="243" height="243" rx="10" fill="#C4C4C4"/>
</mask>
<g mask="url(#mask0_53_275)">
<rect x="-103" y="1" width="593" height="395"/>
</g>
<circle cx="142" cy="134" r="42" fill="white"/>
<path d="M141.532 131.755C141.394 131.742 141.229 131.742 141.077 131.755C137.8 131.645 135.197 128.96 135.197 125.655C135.197 122.281 137.924 119.541 141.311 119.541C144.685 119.541 147.426 122.281 147.426 125.655C147.412 128.96 144.809 131.645 141.532 131.755Z" stroke="#292D32" stroke-width="1.5" stroke-linecap="round" stroke-linejoin="round"/>
<path d="M134.647 136.837C131.314 139.068 131.314 142.703 134.647 144.92C138.433 147.454 144.644 147.454 148.431 144.92C151.763 142.689 151.763 139.054 148.431 136.837C144.658 134.317 138.447 134.317 134.647 136.837Z" stroke="#292D32" stroke-width="1.5" stroke-linecap="round" stroke-linejoin="round"/>
</svg>
