<svg width="915" height="100" viewBox="0 0 915 100" fill="none" xmlns="http://www.w3.org/2000/svg">
<rect opacity="0.2" x="611" y="22" width="200" height="16" fill="#7226AD"/>
<rect opacity="0.2" x="353" y="22" width="200" height="16" fill="#E60EF2"/>
<rect opacity="0.2" x="95" y="22" width="200" height="16" fill="#EF9486"/>
<path d="M7.488 82.192C8.032 82.4267 8.464 82.784 8.784 83.264C9.11467 83.7333 9.28 84.272 9.28 84.88C9.28 85.744 8.976 86.48 8.368 87.088C7.76 87.696 7.024 88 6.16 88H1.28V76.8H5.792C6.624 76.8 7.33333 77.0987 7.92 77.696C8.50667 78.2827 8.8 78.9867 8.8 79.808C8.8 80.8533 8.36267 81.648 7.488 82.192ZM5.792 77.856H2.4V81.76H5.792C6.31467 81.76 6.75733 81.5733 7.12 81.2C7.49333 80.816 7.68 80.352 7.68 79.808C7.68 79.2747 7.49333 78.816 7.12 78.432C6.75733 78.048 6.31467 77.856 5.792 77.856ZM6.16 86.944C6.71467 86.944 7.184 86.7467 7.568 86.352C7.96267 85.9467 8.16 85.456 8.16 84.88C8.16 84.3147 7.96267 83.8293 7.568 83.424C7.184 83.0187 6.71467 82.816 6.16 82.816H2.4V86.944H6.16ZM18.1619 80H19.2179V88H18.1619V86.432C17.4259 87.6053 16.3485 88.192 14.9299 88.192C13.7885 88.192 12.8125 87.7867 12.0019 86.976C11.2019 86.1653 10.8019 85.1733 10.8019 84C10.8019 82.8267 11.2019 81.8347 12.0019 81.024C12.8125 80.2133 13.7885 79.808 14.9299 79.808C16.3485 79.808 17.4259 80.3947 18.1619 81.568V80ZM12.7699 86.256C13.3779 86.864 14.1245 87.168 15.0099 87.168C15.8952 87.168 16.6419 86.864 17.2499 86.256C17.8579 85.6373 18.1619 84.8853 18.1619 84C18.1619 83.1147 17.8579 82.368 17.2499 81.76C16.6419 81.1413 15.8952 80.832 15.0099 80.832C14.1245 80.832 13.3779 81.1413 12.7699 81.76C12.1619 82.368 11.8579 83.1147 11.8579 84C11.8579 84.8853 12.1619 85.6373 12.7699 86.256ZM22.5257 82.096C22.5257 82.4587 22.6857 82.7467 23.0057 82.96C23.3257 83.1733 23.7151 83.3387 24.1737 83.456C24.6324 83.5733 25.0911 83.7067 25.5497 83.856C26.0084 83.9947 26.3977 84.2347 26.7177 84.576C27.0377 84.9067 27.1978 85.344 27.1978 85.888C27.1978 86.5707 26.9257 87.1253 26.3817 87.552C25.8484 87.9787 25.1551 88.192 24.3017 88.192C23.5337 88.192 22.8777 88.0213 22.3337 87.68C21.8004 87.3387 21.4271 86.896 21.2137 86.352L22.1097 85.824C22.2591 86.24 22.5257 86.5707 22.9097 86.816C23.3044 87.0507 23.7684 87.168 24.3017 87.168C24.8244 87.168 25.2617 87.0667 25.6137 86.864C25.9657 86.6507 26.1417 86.3253 26.1417 85.888C26.1417 85.5253 25.9817 85.2373 25.6617 85.024C25.3417 84.8107 24.9524 84.6453 24.4937 84.528C24.0351 84.4107 23.5764 84.2827 23.1177 84.144C22.6591 83.9947 22.2697 83.7547 21.9497 83.424C21.6297 83.0827 21.4697 82.64 21.4697 82.096C21.4697 81.4453 21.7257 80.9013 22.2377 80.464C22.7604 80.0267 23.4164 79.808 24.2057 79.808C24.8564 79.808 25.4271 79.9573 25.9177 80.256C26.4084 80.544 26.7711 80.9387 27.0057 81.44L26.1257 81.952C25.8164 81.2053 25.1764 80.832 24.2057 80.832C23.7471 80.832 23.3524 80.944 23.0217 81.168C22.6911 81.3813 22.5257 81.6907 22.5257 82.096ZM30.1932 78.08C30.0439 78.2293 29.8626 78.304 29.6492 78.304C29.4359 78.304 29.2546 78.2293 29.1052 78.08C28.9559 77.9307 28.8812 77.7493 28.8812 77.536C28.8812 77.3227 28.9559 77.1413 29.1052 76.992C29.2546 76.8427 29.4359 76.768 29.6492 76.768C29.8626 76.768 30.0439 76.8427 30.1932 76.992C30.3426 77.1413 30.4172 77.3227 30.4172 77.536C30.4172 77.7493 30.3426 77.9307 30.1932 78.08ZM29.1212 88V80H30.1772V88H29.1212ZM36.3861 88.192C35.1808 88.192 34.1781 87.792 33.3781 86.992C32.5781 86.1813 32.1781 85.184 32.1781 84C32.1781 82.816 32.5781 81.824 33.3781 81.024C34.1781 80.2133 35.1808 79.808 36.3861 79.808C37.1755 79.808 37.8848 80 38.5141 80.384C39.1435 80.7573 39.6021 81.264 39.8901 81.904L39.0261 82.4C38.8128 81.92 38.4661 81.5413 37.9861 81.264C37.5168 80.976 36.9835 80.832 36.3861 80.832C35.5008 80.832 34.7541 81.1413 34.1461 81.76C33.5381 82.368 33.2341 83.1147 33.2341 84C33.2341 84.8853 33.5381 85.6373 34.1461 86.256C34.7541 86.864 35.5008 87.168 36.3861 87.168C36.9835 87.168 37.5168 87.0293 37.9861 86.752C38.4555 86.464 38.8235 86.08 39.0901 85.6L39.9701 86.112C39.6395 86.752 39.1541 87.2587 38.5141 87.632C37.8741 88.0053 37.1648 88.192 36.3861 88.192ZM46.1262 76.8H47.2462V88H46.1262V76.8ZM53.6378 79.808C54.6084 79.808 55.3711 80.1067 55.9258 80.704C56.4911 81.2907 56.7738 82.0853 56.7738 83.088V88H55.7178V83.088C55.7178 82.3733 55.5258 81.8187 55.1418 81.424C54.7684 81.0293 54.2351 80.832 53.5418 80.832C52.7738 80.832 52.1498 81.0773 51.6698 81.568C51.1898 82.048 50.9498 82.7947 50.9498 83.808V88H49.8938V80H50.9498V81.248C51.5471 80.288 52.4431 79.808 53.6378 79.808ZM63.0556 77.632C62.277 77.568 61.6956 77.7013 61.3116 78.032C60.9383 78.3627 60.7516 78.912 60.7516 79.68V80H63.0556V81.024H60.7516V88H59.6956V81.024H58.3356V80H59.6956V79.68C59.6956 78.6347 59.9836 77.8453 60.5596 77.312C61.1463 76.768 61.9783 76.5333 63.0556 76.608V77.632ZM70.6403 86.992C69.8296 87.792 68.8376 88.192 67.6642 88.192C66.4909 88.192 65.4936 87.792 64.6722 86.992C63.8616 86.1813 63.4562 85.184 63.4562 84C63.4562 82.816 63.8616 81.824 64.6722 81.024C65.4936 80.2133 66.4909 79.808 67.6642 79.808C68.8376 79.808 69.8296 80.2133 70.6403 81.024C71.4616 81.824 71.8723 82.816 71.8723 84C71.8723 85.184 71.4616 86.1813 70.6403 86.992ZM65.4242 86.256C66.0323 86.864 66.7789 87.168 67.6642 87.168C68.5496 87.168 69.2963 86.864 69.9043 86.256C70.5122 85.6373 70.8162 84.8853 70.8162 84C70.8162 83.1147 70.5122 82.368 69.9043 81.76C69.2963 81.1413 68.5496 80.832 67.6642 80.832C66.7789 80.832 66.0323 81.1413 65.4242 81.76C64.8162 82.368 64.5122 83.1147 64.5122 84C64.5122 84.8853 64.8162 85.6373 65.4242 86.256ZM74.9354 81.328C75.426 80.3573 76.2687 79.872 77.4634 79.872V80.896C76.738 80.896 76.1354 81.1093 75.6554 81.536C75.1754 81.9627 74.9354 82.6347 74.9354 83.552V88H73.8794V80H74.9354V81.328ZM87.6786 79.808C88.5746 79.808 89.2946 80.096 89.8386 80.672C90.3933 81.248 90.6706 82.0267 90.6706 83.008V88H89.6146V83.008C89.6146 82.3147 89.4333 81.7813 89.0706 81.408C88.7186 81.024 88.2493 80.832 87.6626 80.832C87.0013 80.832 86.4626 81.056 86.0466 81.504C85.6413 81.9413 85.4386 82.6293 85.4386 83.568V88H84.3826V83.008C84.3826 82.304 84.212 81.7653 83.8706 81.392C83.54 81.0187 83.0866 80.832 82.5106 80.832C81.8706 80.832 81.3266 81.056 80.8786 81.504C80.4306 81.952 80.2066 82.64 80.2066 83.568V88H79.1506V80H80.2066V81.168C80.7826 80.2613 81.5986 79.808 82.6546 79.808C83.8066 79.808 84.6173 80.2933 85.0866 81.264C85.6626 80.2933 86.5266 79.808 87.6786 79.808ZM99.8331 80H100.889V88H99.8331V86.432C99.0971 87.6053 98.0198 88.192 96.6011 88.192C95.4598 88.192 94.4838 87.7867 93.6731 86.976C92.8731 86.1653 92.4731 85.1733 92.4731 84C92.4731 82.8267 92.8731 81.8347 93.6731 81.024C94.4838 80.2133 95.4598 79.808 96.6011 79.808C98.0198 79.808 99.0971 80.3947 99.8331 81.568V80ZM94.4411 86.256C95.0491 86.864 95.7958 87.168 96.6811 87.168C97.5665 87.168 98.3131 86.864 98.9211 86.256C99.5291 85.6373 99.8331 84.8853 99.8331 84C99.8331 83.1147 99.5291 82.368 98.9211 81.76C98.3131 81.1413 97.5665 80.832 96.6811 80.832C95.7958 80.832 95.0491 81.1413 94.4411 81.76C93.8331 82.368 93.5291 83.1147 93.5291 84C93.5291 84.8853 93.8331 85.6373 94.4411 86.256ZM107.605 81.024H105.301V85.872C105.301 86.3093 105.386 86.624 105.557 86.816C105.728 86.9973 105.984 87.0933 106.325 87.104C106.666 87.104 107.093 87.0933 107.605 87.072V88C106.485 88.1707 105.642 88.0907 105.077 87.76C104.522 87.4293 104.245 86.8 104.245 85.872V81.024H102.565V80H104.245V78.08L105.301 77.76V80H107.605V81.024ZM110.677 78.08C110.528 78.2293 110.346 78.304 110.133 78.304C109.92 78.304 109.738 78.2293 109.589 78.08C109.44 77.9307 109.365 77.7493 109.365 77.536C109.365 77.3227 109.44 77.1413 109.589 76.992C109.738 76.8427 109.92 76.768 110.133 76.768C110.346 76.768 110.528 76.8427 110.677 76.992C110.826 77.1413 110.901 77.3227 110.901 77.536C110.901 77.7493 110.826 77.9307 110.677 78.08ZM109.605 88V80H110.661V88H109.605ZM119.846 86.992C119.035 87.792 118.043 88.192 116.87 88.192C115.697 88.192 114.699 87.792 113.878 86.992C113.067 86.1813 112.662 85.184 112.662 84C112.662 82.816 113.067 81.824 113.878 81.024C114.699 80.2133 115.697 79.808 116.87 79.808C118.043 79.808 119.035 80.2133 119.846 81.024C120.667 81.824 121.078 82.816 121.078 84C121.078 85.184 120.667 86.1813 119.846 86.992ZM114.63 86.256C115.238 86.864 115.985 87.168 116.87 87.168C117.755 87.168 118.502 86.864 119.11 86.256C119.718 85.6373 120.022 84.8853 120.022 84C120.022 83.1147 119.718 82.368 119.11 81.76C118.502 81.1413 117.755 80.832 116.87 80.832C115.985 80.832 115.238 81.1413 114.63 81.76C114.022 82.368 113.718 83.1147 113.718 84C113.718 84.8853 114.022 85.6373 114.63 86.256ZM126.829 79.808C127.8 79.808 128.562 80.1067 129.117 80.704C129.682 81.2907 129.965 82.0853 129.965 83.088V88H128.909V83.088C128.909 82.3733 128.717 81.8187 128.333 81.424C127.96 81.0293 127.426 80.832 126.733 80.832C125.965 80.832 125.341 81.0773 124.861 81.568C124.381 82.048 124.141 82.7947 124.141 83.808V88H123.085V80H124.141V81.248C124.738 80.288 125.634 79.808 126.829 79.808Z" fill="black"/>
<circle opacity="0.2" cx="66" cy="30" r="30" fill="#EF9486"/>
<path d="M67.2599 21.6L59.0499 30.29C58.7399 30.62 58.4399 31.27 58.3799 31.72L58.0099 34.96C57.8799 36.13 58.7199 36.93 59.8799 36.73L63.0999 36.18C63.5499 36.1 64.1799 35.77 64.4899 35.43L72.6999 26.74C74.1199 25.24 74.7599 23.53 72.5499 21.44C70.3499 19.37 68.6799 20.1 67.2599 21.6Z" stroke="#EF9486" stroke-width="1.5" stroke-miterlimit="10" stroke-linecap="round" stroke-linejoin="round"/>
<path d="M65.8901 23.05C66.3201 25.81 68.5601 27.92 71.3401 28.2" stroke="#EF9486" stroke-width="1.5" stroke-miterlimit="10" stroke-linecap="round" stroke-linejoin="round"/>
<path d="M57 40H75" stroke="#EF9486" stroke-width="1.5" stroke-miterlimit="10" stroke-linecap="round" stroke-linejoin="round"/>
<path d="M223.28 76.8C224.283 76.8 225.12 77.136 225.792 77.808C226.464 78.48 226.8 79.3173 226.8 80.32C226.8 81.3227 226.464 82.16 225.792 82.832C225.12 83.504 224.283 83.84 223.28 83.84H220.4V88H219.28V76.8H223.28ZM223.28 82.784C223.973 82.784 224.544 82.5547 224.992 82.096C225.451 81.6267 225.68 81.0347 225.68 80.32C225.68 79.6053 225.451 79.0187 224.992 78.56C224.544 78.0907 223.973 77.856 223.28 77.856H220.4V82.784H223.28ZM231.853 79.808C233.037 79.808 233.992 80.2293 234.717 81.072C235.453 81.904 235.821 82.8907 235.821 84.032C235.821 84.1493 235.81 84.3147 235.789 84.528H228.765C228.872 85.3387 229.213 85.984 229.789 86.464C230.376 86.9333 231.096 87.168 231.949 87.168C232.557 87.168 233.08 87.0453 233.517 86.8C233.965 86.544 234.301 86.2133 234.525 85.808L235.453 86.352C235.101 86.9173 234.621 87.3653 234.013 87.696C233.405 88.0267 232.712 88.192 231.933 88.192C230.674 88.192 229.65 87.7973 228.861 87.008C228.072 86.2187 227.677 85.216 227.677 84C227.677 82.8053 228.066 81.808 228.845 81.008C229.624 80.208 230.626 79.808 231.853 79.808ZM231.853 80.832C231.021 80.832 230.322 81.0827 229.757 81.584C229.202 82.0747 228.872 82.7147 228.765 83.504H234.733C234.626 82.6613 234.301 82.0053 233.757 81.536C233.213 81.0667 232.578 80.832 231.853 80.832ZM238.797 81.328C239.287 80.3573 240.13 79.872 241.325 79.872V80.896C240.599 80.896 239.997 81.1093 239.517 81.536C239.037 81.9627 238.797 82.6347 238.797 83.552V88H237.741V80H238.797V81.328ZM243.531 82.096C243.531 82.4587 243.691 82.7467 244.011 82.96C244.331 83.1733 244.721 83.3387 245.179 83.456C245.638 83.5733 246.097 83.7067 246.555 83.856C247.014 83.9947 247.403 84.2347 247.723 84.576C248.043 84.9067 248.203 85.344 248.203 85.888C248.203 86.5707 247.931 87.1253 247.387 87.552C246.854 87.9787 246.161 88.192 245.307 88.192C244.539 88.192 243.883 88.0213 243.339 87.68C242.806 87.3387 242.433 86.896 242.219 86.352L243.115 85.824C243.265 86.24 243.531 86.5707 243.915 86.816C244.31 87.0507 244.774 87.168 245.307 87.168C245.83 87.168 246.267 87.0667 246.619 86.864C246.971 86.6507 247.147 86.3253 247.147 85.888C247.147 85.5253 246.987 85.2373 246.667 85.024C246.347 84.8107 245.958 84.6453 245.499 84.528C245.041 84.4107 244.582 84.2827 244.123 84.144C243.665 83.9947 243.275 83.7547 242.955 83.424C242.635 83.0827 242.475 82.64 242.475 82.096C242.475 81.4453 242.731 80.9013 243.243 80.464C243.766 80.0267 244.422 79.808 245.211 79.808C245.862 79.808 246.433 79.9573 246.923 80.256C247.414 80.544 247.777 80.9387 248.011 81.44L247.131 81.952C246.822 81.2053 246.182 80.832 245.211 80.832C244.753 80.832 244.358 80.944 244.027 81.168C243.697 81.3813 243.531 81.6907 243.531 82.096ZM256.675 86.992C255.864 87.792 254.872 88.192 253.699 88.192C252.525 88.192 251.528 87.792 250.707 86.992C249.896 86.1813 249.491 85.184 249.491 84C249.491 82.816 249.896 81.824 250.707 81.024C251.528 80.2133 252.525 79.808 253.699 79.808C254.872 79.808 255.864 80.2133 256.675 81.024C257.496 81.824 257.907 82.816 257.907 84C257.907 85.184 257.496 86.1813 256.675 86.992ZM251.459 86.256C252.067 86.864 252.813 87.168 253.699 87.168C254.584 87.168 255.331 86.864 255.939 86.256C256.547 85.6373 256.851 84.8853 256.851 84C256.851 83.1147 256.547 82.368 255.939 81.76C255.331 81.1413 254.584 80.832 253.699 80.832C252.813 80.832 252.067 81.1413 251.459 81.76C250.851 82.368 250.547 83.1147 250.547 84C250.547 84.8853 250.851 85.6373 251.459 86.256ZM263.658 79.808C264.628 79.808 265.391 80.1067 265.946 80.704C266.511 81.2907 266.794 82.0853 266.794 83.088V88H265.738V83.088C265.738 82.3733 265.546 81.8187 265.162 81.424C264.788 81.0293 264.255 80.832 263.562 80.832C262.794 80.832 262.17 81.0773 261.69 81.568C261.21 82.048 260.97 82.7947 260.97 83.808V88H259.914V80H260.97V81.248C261.567 80.288 262.463 79.808 263.658 79.808ZM275.956 80H277.012V88H275.956V86.432C275.22 87.6053 274.142 88.192 272.724 88.192C271.582 88.192 270.606 87.7867 269.796 86.976C268.996 86.1653 268.596 85.1733 268.596 84C268.596 82.8267 268.996 81.8347 269.796 81.024C270.606 80.2133 271.582 79.808 272.724 79.808C274.142 79.808 275.22 80.3947 275.956 81.568V80ZM270.564 86.256C271.172 86.864 271.918 87.168 272.804 87.168C273.689 87.168 274.436 86.864 275.044 86.256C275.652 85.6373 275.956 84.8853 275.956 84C275.956 83.1147 275.652 82.368 275.044 81.76C274.436 81.1413 273.689 80.832 272.804 80.832C271.918 80.832 271.172 81.1413 270.564 81.76C269.956 82.368 269.652 83.1147 269.652 84C269.652 84.8853 269.956 85.6373 270.564 86.256ZM279.488 88V76.32H280.544V88H279.488ZM284.096 78.08C283.947 78.2293 283.766 78.304 283.552 78.304C283.339 78.304 283.158 78.2293 283.008 78.08C282.859 77.9307 282.784 77.7493 282.784 77.536C282.784 77.3227 282.859 77.1413 283.008 76.992C283.158 76.8427 283.339 76.768 283.552 76.768C283.766 76.768 283.947 76.8427 284.096 76.992C284.246 77.1413 284.32 77.3227 284.32 77.536C284.32 77.7493 284.246 77.9307 284.096 78.08ZM283.024 88V80H284.08V88H283.024ZM287.713 86.976H292.321V88H286.241V87.296L290.689 81.024H286.401V80H292.161V80.704L287.713 86.976ZM297.529 79.808C298.713 79.808 299.667 80.2293 300.393 81.072C301.129 81.904 301.497 82.8907 301.497 84.032C301.497 84.1493 301.486 84.3147 301.465 84.528H294.441C294.547 85.3387 294.889 85.984 295.465 86.464C296.051 86.9333 296.771 87.168 297.625 87.168C298.233 87.168 298.755 87.0453 299.193 86.8C299.641 86.544 299.977 86.2133 300.201 85.808L301.129 86.352C300.777 86.9173 300.297 87.3653 299.689 87.696C299.081 88.0267 298.387 88.192 297.609 88.192C296.35 88.192 295.326 87.7973 294.537 87.008C293.747 86.2187 293.353 85.216 293.353 84C293.353 82.8053 293.742 81.808 294.521 81.008C295.299 80.208 296.302 79.808 297.529 79.808ZM297.529 80.832C296.697 80.832 295.998 81.0827 295.433 81.584C294.878 82.0747 294.547 82.7147 294.441 83.504H300.409C300.302 82.6613 299.977 82.0053 299.433 81.536C298.889 81.0667 298.254 80.832 297.529 80.832ZM311.816 76.8C312.819 76.8 313.656 77.136 314.328 77.808C315 78.48 315.336 79.3173 315.336 80.32C315.336 81.3227 315 82.16 314.328 82.832C313.656 83.504 312.819 83.84 311.816 83.84H308.936V88H307.816V76.8H311.816ZM311.816 82.784C312.51 82.784 313.08 82.5547 313.528 82.096C313.987 81.6267 314.216 81.0347 314.216 80.32C314.216 79.6053 313.987 79.0187 313.528 78.56C313.08 78.0907 312.51 77.856 311.816 77.856H308.936V82.784H311.816ZM318.406 78.08C318.256 78.2293 318.075 78.304 317.862 78.304C317.648 78.304 317.467 78.2293 317.318 78.08C317.168 77.9307 317.094 77.7493 317.094 77.536C317.094 77.3227 317.168 77.1413 317.318 76.992C317.467 76.8427 317.648 76.768 317.862 76.768C318.075 76.768 318.256 76.8427 318.406 76.992C318.555 77.1413 318.63 77.3227 318.63 77.536C318.63 77.7493 318.555 77.9307 318.406 78.08ZM317.334 88V80H318.39V88H317.334ZM324.599 88.192C323.393 88.192 322.391 87.792 321.591 86.992C320.791 86.1813 320.391 85.184 320.391 84C320.391 82.816 320.791 81.824 321.591 81.024C322.391 80.2133 323.393 79.808 324.599 79.808C325.388 79.808 326.097 80 326.727 80.384C327.356 80.7573 327.815 81.264 328.103 81.904L327.239 82.4C327.025 81.92 326.679 81.5413 326.199 81.264C325.729 80.976 325.196 80.832 324.599 80.832C323.713 80.832 322.967 81.1413 322.359 81.76C321.751 82.368 321.447 83.1147 321.447 84C321.447 84.8853 321.751 85.6373 322.359 86.256C322.967 86.864 323.713 87.168 324.599 87.168C325.196 87.168 325.729 87.0293 326.199 86.752C326.668 86.464 327.036 86.08 327.303 85.6L328.183 86.112C327.852 86.752 327.367 87.2587 326.727 87.632C326.087 88.0053 325.377 88.192 324.599 88.192ZM334.179 81.024H331.875V85.872C331.875 86.3093 331.96 86.624 332.131 86.816C332.301 86.9973 332.557 87.0933 332.899 87.104C333.24 87.104 333.667 87.0933 334.179 87.072V88C333.059 88.1707 332.216 88.0907 331.651 87.76C331.096 87.4293 330.819 86.8 330.819 85.872V81.024H329.139V80H330.819V78.08L331.875 77.76V80H334.179V81.024ZM341.811 80H342.867V88H341.811V86.752C341.213 87.712 340.317 88.192 339.123 88.192C338.152 88.192 337.384 87.8987 336.819 87.312C336.264 86.7147 335.987 85.9147 335.987 84.912V80H337.043V84.912C337.043 85.6267 337.229 86.1813 337.603 86.576C337.987 86.9707 338.525 87.168 339.219 87.168C339.987 87.168 340.611 86.928 341.091 86.448C341.571 85.9573 341.811 85.2053 341.811 84.192V80ZM346.397 81.328C346.887 80.3573 347.73 79.872 348.925 79.872V80.896C348.199 80.896 347.597 81.1093 347.117 81.536C346.637 81.9627 346.397 82.6347 346.397 83.552V88H345.341V80H346.397V81.328ZM353.824 79.808C355.008 79.808 355.962 80.2293 356.688 81.072C357.424 81.904 357.792 82.8907 357.792 84.032C357.792 84.1493 357.781 84.3147 357.76 84.528H350.736C350.842 85.3387 351.184 85.984 351.76 86.464C352.346 86.9333 353.066 87.168 353.92 87.168C354.528 87.168 355.05 87.0453 355.488 86.8C355.936 86.544 356.272 86.2133 356.496 85.808L357.424 86.352C357.072 86.9173 356.592 87.3653 355.984 87.696C355.376 88.0267 354.682 88.192 353.904 88.192C352.645 88.192 351.621 87.7973 350.832 87.008C350.042 86.2187 349.648 85.216 349.648 84C349.648 82.8053 350.037 81.808 350.816 81.008C351.594 80.208 352.597 79.808 353.824 79.808ZM353.824 80.832C352.992 80.832 352.293 81.0827 351.728 81.584C351.173 82.0747 350.842 82.7147 350.736 83.504H356.704C356.597 82.6613 356.272 82.0053 355.728 81.536C355.184 81.0667 354.549 80.832 353.824 80.832ZM365.231 86.944H370.351V88H364.111V76.8H365.231V86.944ZM378.333 86.992C377.522 87.792 376.53 88.192 375.357 88.192C374.183 88.192 373.186 87.792 372.365 86.992C371.554 86.1813 371.149 85.184 371.149 84C371.149 82.816 371.554 81.824 372.365 81.024C373.186 80.2133 374.183 79.808 375.357 79.808C376.53 79.808 377.522 80.2133 378.333 81.024C379.154 81.824 379.565 82.816 379.565 84C379.565 85.184 379.154 86.1813 378.333 86.992ZM373.117 86.256C373.725 86.864 374.471 87.168 375.357 87.168C376.242 87.168 376.989 86.864 377.597 86.256C378.205 85.6373 378.509 84.8853 378.509 84C378.509 83.1147 378.205 82.368 377.597 81.76C376.989 81.1413 376.242 80.832 375.357 80.832C374.471 80.832 373.725 81.1413 373.117 81.76C372.509 82.368 372.205 83.1147 372.205 84C372.205 84.8853 372.509 85.6373 373.117 86.256ZM385.3 88.192C384.095 88.192 383.092 87.792 382.292 86.992C381.492 86.1813 381.092 85.184 381.092 84C381.092 82.816 381.492 81.824 382.292 81.024C383.092 80.2133 384.095 79.808 385.3 79.808C386.089 79.808 386.799 80 387.428 80.384C388.057 80.7573 388.516 81.264 388.804 81.904L387.94 82.4C387.727 81.92 387.38 81.5413 386.9 81.264C386.431 80.976 385.897 80.832 385.3 80.832C384.415 80.832 383.668 81.1413 383.06 81.76C382.452 82.368 382.148 83.1147 382.148 84C382.148 84.8853 382.452 85.6373 383.06 86.256C383.668 86.864 384.415 87.168 385.3 87.168C385.897 87.168 386.431 87.0293 386.9 86.752C387.369 86.464 387.737 86.08 388.004 85.6L388.884 86.112C388.553 86.752 388.068 87.2587 387.428 87.632C386.788 88.0053 386.079 88.192 385.3 88.192ZM397.442 80H398.498V88H397.442V86.432C396.706 87.6053 395.629 88.192 394.21 88.192C393.069 88.192 392.093 87.7867 391.282 86.976C390.482 86.1653 390.082 85.1733 390.082 84C390.082 82.8267 390.482 81.8347 391.282 81.024C392.093 80.2133 393.069 79.808 394.21 79.808C395.629 79.808 396.706 80.3947 397.442 81.568V80ZM392.05 86.256C392.658 86.864 393.405 87.168 394.29 87.168C395.175 87.168 395.922 86.864 396.53 86.256C397.138 85.6373 397.442 84.8853 397.442 84C397.442 83.1147 397.138 82.368 396.53 81.76C395.922 81.1413 395.175 80.832 394.29 80.832C393.405 80.832 392.658 81.1413 392.05 81.76C391.442 82.368 391.138 83.1147 391.138 84C391.138 84.8853 391.442 85.6373 392.05 86.256ZM405.214 81.024H402.91V85.872C402.91 86.3093 402.995 86.624 403.166 86.816C403.336 86.9973 403.592 87.0933 403.934 87.104C404.275 87.104 404.702 87.0933 405.214 87.072V88C404.094 88.1707 403.251 88.0907 402.686 87.76C402.131 87.4293 401.854 86.8 401.854 85.872V81.024H400.174V80H401.854V78.08L402.91 77.76V80H405.214V81.024ZM408.286 78.08C408.136 78.2293 407.955 78.304 407.742 78.304C407.528 78.304 407.347 78.2293 407.198 78.08C407.048 77.9307 406.974 77.7493 406.974 77.536C406.974 77.3227 407.048 77.1413 407.198 76.992C407.347 76.8427 407.528 76.768 407.742 76.768C407.955 76.768 408.136 76.8427 408.286 76.992C408.435 77.1413 408.51 77.3227 408.51 77.536C408.51 77.7493 408.435 77.9307 408.286 78.08ZM407.214 88V80H408.27V88H407.214ZM417.455 86.992C416.644 87.792 415.652 88.192 414.479 88.192C413.305 88.192 412.308 87.792 411.487 86.992C410.676 86.1813 410.271 85.184 410.271 84C410.271 82.816 410.676 81.824 411.487 81.024C412.308 80.2133 413.305 79.808 414.479 79.808C415.652 79.808 416.644 80.2133 417.455 81.024C418.276 81.824 418.687 82.816 418.687 84C418.687 85.184 418.276 86.1813 417.455 86.992ZM412.239 86.256C412.847 86.864 413.593 87.168 414.479 87.168C415.364 87.168 416.111 86.864 416.719 86.256C417.327 85.6373 417.631 84.8853 417.631 84C417.631 83.1147 417.327 82.368 416.719 81.76C416.111 81.1413 415.364 80.832 414.479 80.832C413.593 80.832 412.847 81.1413 412.239 81.76C411.631 82.368 411.327 83.1147 411.327 84C411.327 84.8853 411.631 85.6373 412.239 86.256ZM424.438 79.808C425.408 79.808 426.171 80.1067 426.726 80.704C427.291 81.2907 427.574 82.0853 427.574 83.088V88H426.518V83.088C426.518 82.3733 426.326 81.8187 425.942 81.424C425.568 81.0293 425.035 80.832 424.342 80.832C423.574 80.832 422.95 81.0773 422.47 81.568C421.99 82.048 421.75 82.7947 421.75 83.808V88H420.694V80H421.75V81.248C422.347 80.288 423.243 79.808 424.438 79.808Z" fill="black"/>
<circle opacity="0.2" cx="324" cy="30" r="30" fill="#E60EF2"/>
<path d="M321 28C322.105 28 323 27.1046 323 26C323 24.8954 322.105 24 321 24C319.895 24 319 24.8954 319 26C319 27.1046 319.895 28 321 28Z" stroke="#E60EF2" stroke-width="1.5" stroke-linecap="round" stroke-linejoin="round"/>
<path d="M325 20H321C316 20 314 22 314 27V33C314 38 316 40 321 40H327C332 40 334 38 334 33V28" stroke="#E60EF2" stroke-width="1.5" stroke-linecap="round" stroke-linejoin="round"/>
<path d="M331.14 20.5899L327.51 24.2199C327.37 24.3599 327.23 24.6299 327.21 24.8299L327.01 26.2199C326.94 26.7199 327.29 27.0699 327.79 26.9999L329.18 26.7999C329.37 26.7699 329.65 26.6399 329.79 26.4999L333.42 22.8699C334.05 22.2399 334.34 21.5199 333.42 20.5999C332.49 19.6599 331.77 19.9599 331.14 20.5899Z" stroke="#E60EF2" stroke-width="1.5" stroke-miterlimit="10" stroke-linecap="round" stroke-linejoin="round"/>
<path d="M330.62 21.1101C330.93 22.2101 331.79 23.0701 332.89 23.3801" stroke="#E60EF2" stroke-width="1.5" stroke-miterlimit="10" stroke-linecap="round" stroke-linejoin="round"/>
<path d="M314.67 36.9501L319.6 33.6401C320.39 33.1101 321.53 33.1701 322.24 33.7801L322.57 34.0701C323.35 34.7401 324.61 34.7401 325.39 34.0701L329.55 30.5001C330.33 29.8301 331.59 29.8301 332.37 30.5001L334 31.9001" stroke="#E60EF2" stroke-width="1.5" stroke-linecap="round" stroke-linejoin="round"/>
<path d="M532.32 76.8V77.856H528.88V88H527.76V77.856H524.32V76.8H532.32ZM536.259 79.808C537.443 79.808 538.398 80.2293 539.123 81.072C539.859 81.904 540.227 82.8907 540.227 84.032C540.227 84.1493 540.216 84.3147 540.195 84.528H533.171C533.278 85.3387 533.619 85.984 534.195 86.464C534.782 86.9333 535.502 87.168 536.355 87.168C536.963 87.168 537.486 87.0453 537.923 86.8C538.371 86.544 538.707 86.2133 538.931 85.808L539.859 86.352C539.507 86.9173 539.027 87.3653 538.419 87.696C537.811 88.0267 537.118 88.192 536.339 88.192C535.08 88.192 534.056 87.7973 533.267 87.008C532.478 86.2187 532.083 85.216 532.083 84C532.083 82.8053 532.472 81.808 533.251 81.008C534.03 80.208 535.032 79.808 536.259 79.808ZM536.259 80.832C535.427 80.832 534.728 81.0827 534.163 81.584C533.608 82.0747 533.278 82.7147 533.171 83.504H539.139C539.032 82.6613 538.707 82.0053 538.163 81.536C537.619 81.0667 536.984 80.832 536.259 80.832ZM548.554 88H547.29L544.794 84.704L542.298 88H541.034L544.17 83.856L541.242 80H542.506L544.794 83.024L547.082 80H548.346L545.434 83.856L548.554 88ZM554.471 81.024H552.167V85.872C552.167 86.3093 552.252 86.624 552.423 86.816C552.593 86.9973 552.849 87.0933 553.191 87.104C553.532 87.104 553.959 87.0933 554.471 87.072V88C553.351 88.1707 552.508 88.0907 551.943 87.76C551.388 87.4293 551.111 86.8 551.111 85.872V81.024H549.431V80H551.111V78.08L552.167 77.76V80H554.471V81.024ZM564.871 76.8C565.873 76.8 566.711 77.136 567.383 77.808C568.055 78.48 568.391 79.3173 568.391 80.32C568.391 81.3227 568.055 82.16 567.383 82.832C566.711 83.504 565.873 83.84 564.871 83.84H561.991V88H560.871V76.8H564.871ZM564.871 82.784C565.564 82.784 566.135 82.5547 566.583 82.096C567.041 81.6267 567.271 81.0347 567.271 80.32C567.271 79.6053 567.041 79.0187 566.583 78.56C566.135 78.0907 565.564 77.856 564.871 77.856H561.991V82.784H564.871ZM571.288 81.328C571.779 80.3573 572.621 79.872 573.816 79.872V80.896C573.091 80.896 572.488 81.1093 572.008 81.536C571.528 81.9627 571.288 82.6347 571.288 83.552V88H570.232V80H571.288V81.328ZM578.715 79.808C579.899 79.808 580.853 80.2293 581.579 81.072C582.315 81.904 582.683 82.8907 582.683 84.032C582.683 84.1493 582.672 84.3147 582.651 84.528H575.627C575.733 85.3387 576.075 85.984 576.651 86.464C577.237 86.9333 577.957 87.168 578.811 87.168C579.419 87.168 579.941 87.0453 580.379 86.8C580.827 86.544 581.163 86.2133 581.387 85.808L582.315 86.352C581.963 86.9173 581.483 87.3653 580.875 87.696C580.267 88.0267 579.573 88.192 578.795 88.192C577.536 88.192 576.512 87.7973 575.723 87.008C574.933 86.2187 574.539 85.216 574.539 84C574.539 82.8053 574.928 81.808 575.707 81.008C576.485 80.208 577.488 79.808 578.715 79.808ZM578.715 80.832C577.883 80.832 577.184 81.0827 576.619 81.584C576.064 82.0747 575.733 82.7147 575.627 83.504H581.595C581.488 82.6613 581.163 82.0053 580.619 81.536C580.075 81.0667 579.44 80.832 578.715 80.832ZM588.368 77.632C587.589 77.568 587.008 77.7013 586.624 78.032C586.251 78.3627 586.064 78.912 586.064 79.68V80H588.368V81.024H586.064V88H585.008V81.024H583.648V80H585.008V79.68C585.008 78.6347 585.296 77.8453 585.872 77.312C586.459 76.768 587.291 76.5333 588.368 76.608V77.632ZM592.945 79.808C594.129 79.808 595.083 80.2293 595.809 81.072C596.545 81.904 596.913 82.8907 596.913 84.032C596.913 84.1493 596.902 84.3147 596.881 84.528H589.857C589.963 85.3387 590.305 85.984 590.881 86.464C591.467 86.9333 592.187 87.168 593.041 87.168C593.649 87.168 594.171 87.0453 594.609 86.8C595.057 86.544 595.393 86.2133 595.617 85.808L596.545 86.352C596.193 86.9173 595.713 87.3653 595.105 87.696C594.497 88.0267 593.803 88.192 593.025 88.192C591.766 88.192 590.742 87.7973 589.953 87.008C589.163 86.2187 588.769 85.216 588.769 84C588.769 82.8053 589.158 81.808 589.937 81.008C590.715 80.208 591.718 79.808 592.945 79.808ZM592.945 80.832C592.113 80.832 591.414 81.0827 590.849 81.584C590.294 82.0747 589.963 82.7147 589.857 83.504H595.825C595.718 82.6613 595.393 82.0053 594.849 81.536C594.305 81.0667 593.67 80.832 592.945 80.832ZM599.889 81.328C600.379 80.3573 601.222 79.872 602.417 79.872V80.896C601.691 80.896 601.089 81.1093 600.609 81.536C600.129 81.9627 599.889 82.6347 599.889 83.552V88H598.833V80H599.889V81.328ZM607.315 79.808C608.499 79.808 609.454 80.2293 610.179 81.072C610.915 81.904 611.283 82.8907 611.283 84.032C611.283 84.1493 611.273 84.3147 611.251 84.528H604.227C604.334 85.3387 604.675 85.984 605.251 86.464C605.838 86.9333 606.558 87.168 607.411 87.168C608.019 87.168 608.542 87.0453 608.979 86.8C609.427 86.544 609.763 86.2133 609.987 85.808L610.915 86.352C610.563 86.9173 610.083 87.3653 609.475 87.696C608.867 88.0267 608.174 88.192 607.395 88.192C606.137 88.192 605.113 87.7973 604.323 87.008C603.534 86.2187 603.139 85.216 603.139 84C603.139 82.8053 603.529 81.808 604.307 81.008C605.086 80.208 606.089 79.808 607.315 79.808ZM607.315 80.832C606.483 80.832 605.785 81.0827 605.219 81.584C604.665 82.0747 604.334 82.7147 604.227 83.504H610.195C610.089 82.6613 609.763 82.0053 609.219 81.536C608.675 81.0667 608.041 80.832 607.315 80.832ZM616.947 79.808C617.918 79.808 618.68 80.1067 619.235 80.704C619.8 81.2907 620.083 82.0853 620.083 83.088V88H619.027V83.088C619.027 82.3733 618.835 81.8187 618.451 81.424C618.078 81.0293 617.544 80.832 616.851 80.832C616.083 80.832 615.459 81.0773 614.979 81.568C614.499 82.048 614.259 82.7947 614.259 83.808V88H613.203V80H614.259V81.248C614.856 80.288 615.752 79.808 616.947 79.808ZM626.093 88.192C624.888 88.192 623.885 87.792 623.085 86.992C622.285 86.1813 621.885 85.184 621.885 84C621.885 82.816 622.285 81.824 623.085 81.024C623.885 80.2133 624.888 79.808 626.093 79.808C626.882 79.808 627.592 80 628.221 80.384C628.85 80.7573 629.309 81.264 629.597 81.904L628.733 82.4C628.52 81.92 628.173 81.5413 627.693 81.264C627.224 80.976 626.69 80.832 626.093 80.832C625.208 80.832 624.461 81.1413 623.853 81.76C623.245 82.368 622.941 83.1147 622.941 84C622.941 84.8853 623.245 85.6373 623.853 86.256C624.461 86.864 625.208 87.168 626.093 87.168C626.69 87.168 627.224 87.0293 627.693 86.752C628.162 86.464 628.53 86.08 628.797 85.6L629.677 86.112C629.346 86.752 628.861 87.2587 628.221 87.632C627.581 88.0053 626.872 88.192 626.093 88.192ZM635.051 79.808C636.235 79.808 637.19 80.2293 637.915 81.072C638.651 81.904 639.019 82.8907 639.019 84.032C639.019 84.1493 639.008 84.3147 638.987 84.528H631.963C632.07 85.3387 632.411 85.984 632.987 86.464C633.574 86.9333 634.294 87.168 635.147 87.168C635.755 87.168 636.278 87.0453 636.715 86.8C637.163 86.544 637.499 86.2133 637.723 85.808L638.651 86.352C638.299 86.9173 637.819 87.3653 637.211 87.696C636.603 88.0267 635.91 88.192 635.131 88.192C633.872 88.192 632.848 87.7973 632.059 87.008C631.27 86.2187 630.875 85.216 630.875 84C630.875 82.8053 631.264 81.808 632.043 81.008C632.822 80.208 633.824 79.808 635.051 79.808ZM635.051 80.832C634.219 80.832 633.52 81.0827 632.955 81.584C632.4 82.0747 632.07 82.7147 631.963 83.504H637.931C637.824 82.6613 637.499 82.0053 636.955 81.536C636.411 81.0667 635.776 80.832 635.051 80.832Z" fill="black"/>
<circle opacity="0.2" cx="582" cy="30" r="30" fill="#7226AD"/>
<path d="M579 40H585C590 40 592 38 592 33V27C592 22 590 20 585 20H579C574 20 572 22 572 27V33C572 38 574 40 579 40Z" stroke="#7226AD" stroke-width="1.5" stroke-linecap="round" stroke-linejoin="round"/>
<path d="M577 26.8899C580.15 25.3199 583.85 25.3199 587 26.8899" stroke="#7226AD" stroke-width="1.5" stroke-linecap="round" stroke-linejoin="round"/>
<path d="M582 34.2999V25.9299" stroke="#7226AD" stroke-width="1.5" stroke-linecap="round" stroke-linejoin="round"/>
<path d="M771.28 76.8C772.283 76.8 773.12 77.136 773.792 77.808C774.464 78.48 774.8 79.3173 774.8 80.32C774.8 81.3227 774.464 82.16 773.792 82.832C773.12 83.504 772.283 83.84 771.28 83.84H768.4V88H767.28V76.8H771.28ZM771.28 82.784C771.973 82.784 772.544 82.5547 772.992 82.096C773.451 81.6267 773.68 81.0347 773.68 80.32C773.68 79.6053 773.451 79.0187 772.992 78.56C772.544 78.0907 771.973 77.856 771.28 77.856H768.4V82.784H771.28ZM777.697 81.328C778.188 80.3573 779.031 79.872 780.225 79.872V80.896C779.5 80.896 778.897 81.1093 778.417 81.536C777.937 81.9627 777.697 82.6347 777.697 83.552V88H776.641V80H777.697V81.328ZM785.124 79.808C786.308 79.808 787.263 80.2293 787.988 81.072C788.724 81.904 789.092 82.8907 789.092 84.032C789.092 84.1493 789.081 84.3147 789.06 84.528H782.036C782.143 85.3387 782.484 85.984 783.06 86.464C783.647 86.9333 784.367 87.168 785.22 87.168C785.828 87.168 786.351 87.0453 786.788 86.8C787.236 86.544 787.572 86.2133 787.796 85.808L788.724 86.352C788.372 86.9173 787.892 87.3653 787.284 87.696C786.676 88.0267 785.983 88.192 785.204 88.192C783.945 88.192 782.921 87.7973 782.132 87.008C781.343 86.2187 780.948 85.216 780.948 84C780.948 82.8053 781.337 81.808 782.116 81.008C782.895 80.208 783.897 79.808 785.124 79.808ZM785.124 80.832C784.292 80.832 783.593 81.0827 783.028 81.584C782.473 82.0747 782.143 82.7147 782.036 83.504H788.004C787.897 82.6613 787.572 82.0053 787.028 81.536C786.484 81.0667 785.849 80.832 785.124 80.832ZM796.459 80H797.579L794.299 88H793.019L789.739 80H790.859L793.659 86.896L796.459 80ZM800.168 78.08C800.018 78.2293 799.837 78.304 799.624 78.304C799.41 78.304 799.229 78.2293 799.08 78.08C798.93 77.9307 798.856 77.7493 798.856 77.536C798.856 77.3227 798.93 77.1413 799.08 76.992C799.229 76.8427 799.41 76.768 799.624 76.768C799.837 76.768 800.018 76.8427 800.168 76.992C800.317 77.1413 800.392 77.3227 800.392 77.536C800.392 77.7493 800.317 77.9307 800.168 78.08ZM799.096 88V80H800.152V88H799.096ZM806.329 79.808C807.513 79.808 808.467 80.2293 809.193 81.072C809.929 81.904 810.297 82.8907 810.297 84.032C810.297 84.1493 810.286 84.3147 810.265 84.528H803.241C803.347 85.3387 803.689 85.984 804.265 86.464C804.851 86.9333 805.571 87.168 806.425 87.168C807.033 87.168 807.555 87.0453 807.993 86.8C808.441 86.544 808.777 86.2133 809.001 85.808L809.929 86.352C809.577 86.9173 809.097 87.3653 808.489 87.696C807.881 88.0267 807.187 88.192 806.409 88.192C805.15 88.192 804.126 87.7973 803.337 87.008C802.547 86.2187 802.153 85.216 802.153 84C802.153 82.8053 802.542 81.808 803.321 81.008C804.099 80.208 805.102 79.808 806.329 79.808ZM806.329 80.832C805.497 80.832 804.798 81.0827 804.233 81.584C803.678 82.0747 803.347 82.7147 803.241 83.504H809.209C809.102 82.6613 808.777 82.0053 808.233 81.536C807.689 81.0667 807.054 80.832 806.329 80.832ZM821.536 80H822.624L820.16 88H819.008L816.944 81.552L814.88 88H813.728L811.264 80H812.352L814.32 86.64L816.416 80H817.472L819.568 86.64L821.536 80ZM835.576 80H836.632V88H835.576V86.432C834.84 87.6053 833.763 88.192 832.344 88.192C831.203 88.192 830.227 87.7867 829.416 86.976C828.616 86.1653 828.216 85.1733 828.216 84C828.216 82.8267 828.616 81.8347 829.416 81.024C830.227 80.2133 831.203 79.808 832.344 79.808C833.763 79.808 834.84 80.3947 835.576 81.568V80ZM830.184 86.256C830.792 86.864 831.539 87.168 832.424 87.168C833.31 87.168 834.056 86.864 834.664 86.256C835.272 85.6373 835.576 84.8853 835.576 84C835.576 83.1147 835.272 82.368 834.664 81.76C834.056 81.1413 833.31 80.832 832.424 80.832C831.539 80.832 830.792 81.1413 830.184 81.76C829.576 82.368 829.272 83.1147 829.272 84C829.272 84.8853 829.576 85.6373 830.184 86.256ZM842.852 79.808C843.823 79.808 844.585 80.1067 845.14 80.704C845.705 81.2907 845.988 82.0853 845.988 83.088V88H844.932V83.088C844.932 82.3733 844.74 81.8187 844.356 81.424C843.983 81.0293 843.449 80.832 842.756 80.832C841.988 80.832 841.364 81.0773 840.884 81.568C840.404 82.048 840.164 82.7947 840.164 83.808V88H839.108V80H840.164V81.248C840.761 80.288 841.657 79.808 842.852 79.808ZM855.15 76.8H856.206V88H855.15V86.432C854.414 87.6053 853.337 88.192 851.918 88.192C850.777 88.192 849.801 87.7867 848.99 86.976C848.19 86.1653 847.79 85.1733 847.79 84C847.79 82.8267 848.19 81.8347 848.99 81.024C849.801 80.2133 850.777 79.808 851.918 79.808C853.337 79.808 854.414 80.3947 855.15 81.568V76.8ZM849.758 86.256C850.366 86.864 851.113 87.168 851.998 87.168C852.883 87.168 853.63 86.864 854.238 86.256C854.846 85.6373 855.15 84.8853 855.15 84C855.15 83.1147 854.846 82.368 854.238 81.76C853.63 81.1413 852.883 80.832 851.998 80.832C851.113 80.832 850.366 81.1413 849.758 81.76C849.15 82.368 848.846 83.1147 848.846 84C848.846 84.8853 849.15 85.6373 849.758 86.256ZM867.082 76.8C868.085 76.8 868.922 77.136 869.594 77.808C870.266 78.48 870.602 79.3173 870.602 80.32C870.602 81.3227 870.266 82.16 869.594 82.832C868.922 83.504 868.085 83.84 867.082 83.84H864.202V88H863.082V76.8H867.082ZM867.082 82.784C867.775 82.784 868.346 82.5547 868.794 82.096C869.253 81.6267 869.482 81.0347 869.482 80.32C869.482 79.6053 869.253 79.0187 868.794 78.56C868.346 78.0907 867.775 77.856 867.082 77.856H864.202V82.784H867.082ZM878.231 80H879.287V88H878.231V86.752C877.634 87.712 876.738 88.192 875.543 88.192C874.573 88.192 873.805 87.8987 873.239 87.312C872.685 86.7147 872.407 85.9147 872.407 84.912V80H873.463V84.912C873.463 85.6267 873.65 86.1813 874.023 86.576C874.407 86.9707 874.946 87.168 875.639 87.168C876.407 87.168 877.031 86.928 877.511 86.448C877.991 85.9573 878.231 85.2053 878.231 84.192V80ZM886.049 79.808C887.191 79.808 888.161 80.2133 888.961 81.024C889.772 81.8347 890.177 82.8267 890.177 84C890.177 85.1733 889.772 86.1653 888.961 86.976C888.161 87.7867 887.191 88.192 886.049 88.192C884.631 88.192 883.553 87.6053 882.817 86.432V88H881.761V76.8H882.817V81.568C883.553 80.3947 884.631 79.808 886.049 79.808ZM883.729 86.256C884.337 86.864 885.084 87.168 885.969 87.168C886.855 87.168 887.601 86.864 888.209 86.256C888.817 85.6373 889.121 84.8853 889.121 84C889.121 83.1147 888.817 82.368 888.209 81.76C887.601 81.1413 886.855 80.832 885.969 80.832C885.084 80.832 884.337 81.1413 883.729 81.76C883.121 82.368 882.817 83.1147 882.817 84C882.817 84.8853 883.121 85.6373 883.729 86.256ZM892.173 88V76.32H893.229V88H892.173ZM896.782 78.08C896.633 78.2293 896.451 78.304 896.238 78.304C896.025 78.304 895.843 78.2293 895.694 78.08C895.545 77.9307 895.47 77.7493 895.47 77.536C895.47 77.3227 895.545 77.1413 895.694 76.992C895.843 76.8427 896.025 76.768 896.238 76.768C896.451 76.768 896.633 76.8427 896.782 76.992C896.931 77.1413 897.006 77.3227 897.006 77.536C897.006 77.7493 896.931 77.9307 896.782 78.08ZM895.71 88V80H896.766V88H895.71ZM900.079 82.096C900.079 82.4587 900.239 82.7467 900.559 82.96C900.879 83.1733 901.268 83.3387 901.727 83.456C902.186 83.5733 902.644 83.7067 903.103 83.856C903.562 83.9947 903.951 84.2347 904.271 84.576C904.591 84.9067 904.751 85.344 904.751 85.888C904.751 86.5707 904.479 87.1253 903.935 87.552C903.402 87.9787 902.708 88.192 901.855 88.192C901.087 88.192 900.431 88.0213 899.887 87.68C899.354 87.3387 898.98 86.896 898.767 86.352L899.663 85.824C899.812 86.24 900.079 86.5707 900.463 86.816C900.858 87.0507 901.322 87.168 901.855 87.168C902.378 87.168 902.815 87.0667 903.167 86.864C903.519 86.6507 903.695 86.3253 903.695 85.888C903.695 85.5253 903.535 85.2373 903.215 85.024C902.895 84.8107 902.506 84.6453 902.047 84.528C901.588 84.4107 901.13 84.2827 900.671 84.144C900.212 83.9947 899.823 83.7547 899.503 83.424C899.183 83.0827 899.023 82.64 899.023 82.096C899.023 81.4453 899.279 80.9013 899.791 80.464C900.314 80.0267 900.97 79.808 901.759 79.808C902.41 79.808 902.98 79.9573 903.471 80.256C903.962 80.544 904.324 80.9387 904.559 81.44L903.679 81.952C903.37 81.2053 902.73 80.832 901.759 80.832C901.3 80.832 900.906 80.944 900.575 81.168C900.244 81.3813 900.079 81.6907 900.079 82.096ZM910.418 79.808C911.389 79.808 912.152 80.1067 912.706 80.704C913.272 81.2907 913.554 82.0853 913.554 83.088V88H912.498V83.088C912.498 82.3733 912.306 81.8187 911.922 81.424C911.549 81.0293 911.016 80.832 910.322 80.832C909.554 80.832 908.93 81.0773 908.45 81.568C907.97 82.048 907.73 82.7947 907.73 83.808V88H906.674V76.8H907.73V81.248C908.328 80.288 909.224 79.808 910.418 79.808Z" fill="#01011F"/>
<circle opacity="0.2" cx="840" cy="30" r="30" fill="#F3F3FE"/>
<path d="M834.4 24.3199L842.89 21.4899C846.7 20.2199 848.77 22.2999 847.51 26.1099L844.68 34.5999C842.78 40.3099 839.66 40.3099 837.76 34.5999L836.92 32.0799L834.4 31.2399C828.69 29.3399 828.69 26.2299 834.4 24.3199Z" stroke="#01011F" stroke-width="1.5" stroke-linecap="round" stroke-linejoin="round"/>
<path d="M837.11 31.6501L840.69 28.0601" stroke="#01011F" stroke-width="1.5" stroke-linecap="round" stroke-linejoin="round"/>
</svg>
