<svg width="180" height="56" viewBox="0 0 180 56" fill="none" xmlns="http://www.w3.org/2000/svg">
<g opacity="0.87">
<path d="M62.4 39V21.44H57.6V39H62.4ZM62.4 16.24V11.12H57.6V16.24H62.4Z" fill="#EF4A31"/>
<path d="M86.4113 34.12C83.9313 34.12 81.9713 32.12 81.9313 29.64V20.28C81.9313 17.8 83.9313 15.8 86.4113 15.8C88.8913 15.8 90.8913 17.8 90.8913 20.28H95.7312C95.7312 15.16 91.5713 11 86.4113 11C81.2913 11 77.1313 15.16 77.1313 20.28V29.64C77.1313 34.8 81.2913 38.96 86.4113 38.96C91.5713 38.96 95.7312 34.8 95.7312 29.64H90.8913C90.8913 32.12 88.8913 34.12 86.4113 34.12ZM105.448 21.4C104.888 21.4 104.288 21.48 103.728 21.64V21.4H98.9281V39.04H103.728V27.96C103.728 27.28 104.168 26.64 104.808 26.36C105.448 26.12 106.168 26.24 106.688 26.76L110.088 23.32C108.848 22.08 107.208 21.4 105.448 21.4ZM119.09 34.08C118.37 34.12 117.65 33.92 117.05 33.56L122.41 31.32L123.09 31.04L127.97 29.04L127.01 26.8V26.76V26.72H126.97V26.68V26.64L126.93 26.6C126.85 26.44 126.77 26.28 126.69 26.12C126.69 26.08 126.65 26 126.61 25.96C126.53 25.84 126.45 25.72 126.41 25.56C126.37 25.52 126.33 25.44 126.29 25.4C126.21 25.32 126.17 25.2 126.09 25.12C123.65 21.68 119.13 20.48 115.29 22.2C111.49 23.92 109.41 28.12 110.33 32.2V32.24C110.53 32.96 110.77 33.64 111.09 34.28C111.37 34.76 111.65 35.2 111.97 35.64C113.73 37.8 116.41 39.04 119.17 39C121.81 39 123.93 38.2 126.21 36.2L123.09 32.52C121.65 33.76 120.53 34.08 119.09 34.08ZM115.21 29.6C115.33 28.28 116.21 27.08 117.45 26.56C117.85 26.36 118.33 26.24 118.81 26.28C119.65 26.28 120.49 26.56 121.17 27.08L121.21 27.12L118.25 28.36L115.37 29.56L115.21 29.64V29.6ZM142.773 21.4V22.36C139.053 20.48 134.573 21.48 131.933 24.68C129.333 27.92 129.333 32.52 131.933 35.76C134.573 38.96 139.053 39.96 142.773 38.08V39H147.613V21.4H142.773ZM138.812 34.2C136.613 34.2 134.853 32.4 134.853 30.2C134.853 28.04 136.613 26.24 138.812 26.24C140.973 26.24 142.773 28.04 142.773 30.2C142.773 32.4 140.973 34.16 138.812 34.2ZM158.523 26.24V21.4H156.243V11.04H151.403V21.4H150.003V26.24H151.403V34.28C151.403 36.88 153.523 39 156.123 39H158.523V34.16H156.243V26.24H158.523ZM169.91 34.08C169.19 34.12 168.47 33.92 167.87 33.56L173.23 31.32L173.91 31.04L178.79 29.04L177.83 26.8V26.76V26.72H177.79V26.68V26.64L177.75 26.6C177.67 26.44 177.59 26.28 177.51 26.12C177.51 26.08 177.47 26 177.43 25.96C177.35 25.84 177.27 25.72 177.23 25.56C177.19 25.52 177.15 25.44 177.11 25.4C177.03 25.32 176.99 25.2 176.91 25.12C174.47 21.68 169.95 20.48 166.11 22.2C162.31 23.92 160.23 28.12 161.15 32.2V32.24C161.35 32.96 161.59 33.64 161.91 34.28C162.19 34.76 162.47 35.2 162.79 35.64C164.55 37.8 167.23 39.04 169.99 39C172.63 39 174.75 38.2 177.03 36.2L173.91 32.52C172.47 33.76 171.35 34.08 169.91 34.08ZM166.03 29.6C166.15 28.28 167.03 27.08 168.27 26.56C168.67 26.36 169.15 26.24 169.63 26.28C170.47 26.28 171.31 26.56 171.99 27.08L172.03 27.12L169.07 28.36L166.19 29.56L166.03 29.64V29.6Z" fill="#0000FF"/>
</g>
<g opacity="0.5" filter="url(#filter0_d_448_2464)">
<circle cx="28" cy="24" r="20" fill="#E6E6FF"/>
</g>
<path d="M28.1918 22.0146C28.0838 22.0038 27.9542 22.0038 27.8354 22.0146C25.2649 21.9282 23.2236 19.8221 23.2236 17.23C23.2236 14.5839 25.3621 12.4346 28.019 12.4346C30.6651 12.4346 32.8144 14.5839 32.8144 17.23C32.8036 19.8221 30.7623 21.9282 28.1918 22.0146Z" stroke="#EF9486" stroke-width="1.5" stroke-linecap="round" stroke-linejoin="round"/>
<path d="M22.7913 25.9999C20.1776 27.7495 20.1776 30.6008 22.7913 32.3397C25.7614 34.327 30.6324 34.327 33.6025 32.3397C36.2162 30.59 36.2162 27.7387 33.6025 25.9999C30.6432 24.0234 25.7722 24.0234 22.7913 25.9999Z" stroke="#0000FF" stroke-width="1.5" stroke-linecap="round" stroke-linejoin="round"/>
<defs>
<filter id="filter0_d_448_2464" x="0" y="0" width="56" height="56" filterUnits="userSpaceOnUse" color-interpolation-filters="sRGB">
<feFlood flood-opacity="0" result="BackgroundImageFix"/>
<feColorMatrix in="SourceAlpha" type="matrix" values="0 0 0 0 0 0 0 0 0 0 0 0 0 0 0 0 0 0 127 0" result="hardAlpha"/>
<feOffset dy="4"/>
<feGaussianBlur stdDeviation="4"/>
<feComposite in2="hardAlpha" operator="out"/>
<feColorMatrix type="matrix" values="0 0 0 0 0 0 0 0 0 0 0 0 0 0 1 0 0 0 0.25 0"/>
<feBlend mode="normal" in2="BackgroundImageFix" result="effect1_dropShadow_448_2464"/>
<feBlend mode="normal" in="SourceGraphic" in2="effect1_dropShadow_448_2464" result="shape"/>
</filter>
</defs>
</svg>
