<svg width="279" height="65" viewBox="0 0 279 65" fill="none" xmlns="http://www.w3.org/2000/svg">
<rect x="0.5" y="0.5" width="278" height="64" rx="9.5" fill="white" stroke="#7226AD"/>
<path d="M22 14L27.584 25.3143L40.0701 27.1287L31.035 35.9357L33.1679 48.3713L22 42.5L10.8321 48.3713L12.965 35.9357L3.92993 27.1287L16.416 25.3143L22 14Z" fill="#F9CB2A"/>
<path d="M68 14L73.584 25.3143L86.0701 27.1287L77.035 35.9357L79.1679 48.3713L68 42.5L56.8321 48.3713L58.965 35.9357L49.9299 27.1287L62.416 25.3143L68 14Z" fill="#F9CB2A"/>
<path d="M114 14L119.584 25.3143L132.07 27.1287L123.035 35.9357L125.168 48.3713L114 42.5L102.832 48.3713L104.965 35.9357L95.9299 27.1287L108.416 25.3143L114 14Z" fill="#F9CB2A"/>
<path d="M160 14L165.584 25.3143L178.07 27.1287L169.035 35.9357L171.168 48.3713L160 42.5L148.832 48.3713L150.965 35.9357L141.93 27.1287L154.416 25.3143L160 14Z" fill="#F9CB2A"/>
<path d="M206 14L211.584 25.3143L224.07 27.1287L215.035 35.9357L217.168 48.3713L206 42.5L194.832 48.3713L196.965 35.9357L187.93 27.1287L200.416 25.3143L206 14Z" fill="#E0E0E0"/>
<path d="M253.96 27.17C255.96 28.56 257.34 30.77 257.62 33.32" stroke="#0000FF" stroke-width="1.5" stroke-linecap="round" stroke-linejoin="round"/>
<path d="M240.49 33.37C240.75 30.83 242.11 28.62 244.09 27.22" stroke="#0000FF" stroke-width="1.5" stroke-linecap="round" stroke-linejoin="round"/>
<path d="M245.19 41.94C246.35 42.53 247.67 42.86 249.06 42.86C250.4 42.86 251.66 42.56 252.79 42.01" stroke="#0000FF" stroke-width="1.5" stroke-linecap="round" stroke-linejoin="round"/>
<path d="M249.06 28.7C250.595 28.7 251.84 27.4554 251.84 25.92C251.84 24.3846 250.595 23.14 249.06 23.14C247.525 23.14 246.28 24.3846 246.28 25.92C246.28 27.4554 247.525 28.7 249.06 28.7Z" stroke="#0000FF" stroke-width="1.5" stroke-linecap="round" stroke-linejoin="round"/>
<path d="M241.83 40.92C243.365 40.92 244.61 39.6753 244.61 38.14C244.61 36.6046 243.365 35.36 241.83 35.36C240.295 35.36 239.05 36.6046 239.05 38.14C239.05 39.6753 240.295 40.92 241.83 40.92Z" stroke="#0000FF" stroke-width="1.5" stroke-linecap="round" stroke-linejoin="round"/>
<path d="M256.17 40.92C257.705 40.92 258.95 39.6753 258.95 38.14C258.95 36.6046 257.705 35.36 256.17 35.36C254.635 35.36 253.39 36.6046 253.39 38.14C253.39 39.6753 254.635 40.92 256.17 40.92Z" stroke="#0000FF" stroke-width="1.5" stroke-linecap="round" stroke-linejoin="round"/>
</svg>
