<svg width="134" height="134" viewBox="0 0 134 134" fill="none" xmlns="http://www.w3.org/2000/svg">
<path d="M66.6667 0.333328C53.4813 0.333328 40.592 4.24326 29.6287 11.5687C18.6654 18.8941 10.1206 29.306 5.07473 41.4878C0.0288854 53.6695 -1.29134 67.074 1.28101 80.006C3.85336 92.9381 10.2027 104.817 19.5262 114.14C28.8498 123.464 40.7286 129.813 53.6607 132.386C66.5928 134.958 79.9972 133.638 92.1789 128.592C104.361 123.546 114.773 115.001 122.098 104.038C129.423 93.0747 133.333 80.1854 133.333 67C133.333 49.3189 126.31 32.362 113.807 19.8595C101.305 7.35712 84.3478 0.333328 66.6667 0.333328ZM110.208 44.625L55.4584 99.3333L23.125 67C22.02 65.8949 21.3991 64.3961 21.3991 62.8333C21.3991 61.2705 22.02 59.7717 23.125 58.6667C24.2301 57.5616 25.7289 56.9408 27.2917 56.9408C28.8545 56.9408 30.3533 57.5616 31.4584 58.6667L55.5417 82.75L101.958 36.375C102.506 35.8278 103.155 35.3938 103.87 35.0977C104.585 34.8015 105.351 34.6491 106.125 34.6491C106.899 34.6491 107.665 34.8015 108.38 35.0977C109.095 35.3938 109.745 35.8278 110.292 36.375C110.839 36.9222 111.273 37.5718 111.569 38.2867C111.865 39.0016 112.018 39.7678 112.018 40.5417C112.018 41.3155 111.865 42.0817 111.569 42.7966C111.273 43.5116 110.839 44.1612 110.292 44.7083L110.208 44.625Z" fill="#0000FF"/>
</svg>
